<svg width="960" height="540" viewBox="0 0 960 540" fill="none" xmlns="http://www.w3.org/2000/svg">
  <g clip-path="url(#clip0_1960_22)">
    <path opacity="0.2"
      d="M39.2997 353.8C55.7997 341.8 72.5997 335.5 91.9997 328.8C111.4 322.2 133.4 315.3 149.2 322.3C164.9 329.3 174.3 350.3 180.7 371.3C187.1 392.3 190.4 413.3 184.7 432C178.9 450.6 164.2 466.9 146.1 477.5C127.9 488.1 106.4 493.1 85.3997 490.4C64.2997 487.7 43.7997 477.4 27.9997 461.3C12.1997 445.1 1.09968 423 3.79968 403.2C6.39968 383.4 22.6997 365.8 39.2997 353.8Z"
      stroke="white" stroke-width="15" />
    <path opacity="0.2"
      d="M659.8 483.4C666.5 476.4 675 471.5 685 468.4C695 465.2 706.5 463.8 714.1 468.5C721.7 473.3 725.4 484.2 726.8 494.1C728.2 504 727.2 512.9 724.1 520.8C720.9 528.6 715.5 535.4 708.6 539.4C701.6 543.4 693.1 544.5 684.8 543.2C676.5 541.9 668.5 538.3 661.6 532.2C654.7 526.1 649 517.6 648.6 508.7C648.2 499.8 653.1 490.5 659.8 483.4Z"
      stroke="white" stroke-width="15" />
    <path opacity="0.2"
      d="M273.1 -40.2001C284.8 -56.8001 299.6 -72.6001 318.4 -78.4001C337.1 -84.3001 359.7 -80.2001 375 -68.1001C390.3 -56.1001 398.3 -36.0001 407.5 -15.1001C416.8 5.79993 427.3 27.6999 421.7 43.8999C416.2 60.1999 394.4 70.8999 374.5 77.5999C354.5 84.2999 336.3 86.9999 315.4 87.1999C294.4 87.2999 270.7 84.7999 258.3 71.6999C246 58.5999 245.1 34.7999 248.9 14.1999C252.8 -6.30007 261.4 -23.7001 273.1 -40.2001Z"
      stroke="white" stroke-width="15" />
    <path opacity="0.2"
      d="M836.7 280.9C845.3 264.9 858.2 248.4 873.2 246.3C888.1 244.2 905.2 256.4 921 267.7C936.9 279 951.6 289.3 959.6 304.1C967.5 319 968.9 338.5 963.2 356C957.6 373.6 945.1 389.3 929.4 395.7C913.7 402 894.9 398.9 877.2 394.7C859.6 390.4 843.1 384.9 833.7 373.6C824.2 362.3 821.8 345.2 822.7 328.8C823.7 312.5 828.1 296.9 836.7 280.9Z"
      stroke="white" stroke-width="15" />
    <path opacity="0.2"
      d="M658.5 147.2C665.7 135.1 678 124.8 690.9 123.6C703.7 122.5 717.3 130.7 733 137.8C748.7 145 766.6 151.1 771.1 162.5C775.6 173.9 766.8 190.4 760 207.2C753.3 224 748.7 241.1 737.9 246.8C727.2 252.6 710.3 247 695.6 241.7C680.9 236.4 668.4 231.5 660.6 222.4C652.9 213.4 649.8 200.2 649.4 186.7C649 173.1 651.3 159.3 658.5 147.2Z"
      stroke="white" stroke-width="15" />
    <path opacity="0.2"
      d="M880 -33C888.8 -42.3 905 -44.7 920.6 -46.7C936.2 -48.8 951.4 -50.6 961.9 -44.6C972.5 -38.5 978.5 -24.5 983.7 -10.2C988.8 3.99997 993.1 18.6 989.3 30.8C985.5 43 973.8 52.8 961.1 58C948.4 63.1 934.9 63.4 922.2 60.8C909.5 58.2 897.6 52.6 888.8 43.4C880 34.3 874.3 21.6 872.1 7.19998C869.9 -7.30002 871.2 -23.7 880 -33Z"
      stroke="white" stroke-width="15" />
    <path opacity="0.2"
      d="M389.6 248.3C395.3 238.3 405.8 230.1 418.2 226.8C430.6 223.6 444.7 225.2 455.9 231.8C467.1 238.3 475.3 249.9 477.9 262C480.5 274.1 477.6 286.7 473.1 298.7C468.6 310.7 462.6 322 453 328.8C443.3 335.6 430 337.8 417.2 335.9C404.4 333.9 392.1 327.8 386.4 318.1C380.7 308.4 381.5 295.2 382.3 282.7C383.1 270.2 383.9 258.3 389.6 248.3Z"
      stroke="white" stroke-width="15" />
    <path opacity="0.2"
      d="M0.799808 58.2C13.5998 44.5 28.9998 34 46.9998 28.9C64.9998 23.8 85.4998 24.1 98.9998 33.9C112.4 43.6 118.8 62.8 123.4 80.9C128.1 99 131 116.1 127.2 132.7C123.4 149.2 112.9 165.2 97.4998 177C82.1998 188.8 61.9998 196.4 45.2998 191.8C28.5998 187.2 15.3998 170.4 2.99981 154.1C-9.30019 137.8 -20.8002 121.9 -21.5002 105.4C-22.2002 89 -12.0002 72 0.799808 58.2Z"
      stroke="white" stroke-width="15" />
    <path opacity="0.2"
      d="M365.3 490.1C378.4 479.3 395.5 475.3 413.2 471.5C430.9 467.7 449.3 464.1 463.9 470.2C478.6 476.4 489.5 492.3 494.2 509.2C498.9 526.2 497.3 544.1 490.7 559.3C484 574.5 472.3 586.9 458.1 595C443.9 603.2 427.3 607.2 411.5 604.9C395.6 602.6 380.4 593.9 367.7 581.4C355 568.8 344.6 552.4 344 535.4C343.3 518.5 352.3 500.9 365.3 490.1Z"
      stroke="white" stroke-width="15" />
  </g>
  <defs>
    <clipPath id="clip0_1960_22">
      <rect width="540" height="960" fill="white" transform="translate(0 540) rotate(-90)" />
    </clipPath>
  </defs>
</svg>