<svg id="visual" viewBox="0 0 540 960" width="540" height="960" xmlns="http://www.w3.org/2000/svg"
  xmlns:xlink="http://www.w3.org/1999/xlink" version="1.1">
  <g>
    <g transform="translate(139 102)">
      <path
        d="M47.2 -62.7C59.2 -46.2 65.5 -29.4 72.2 -10C78.8 9.4 85.7 31.4 78.7 47.2C71.7 62.9 50.7 72.3 29.7 78.7C8.7 85.1 -12.3 88.4 -31 82.7C-49.6 76.9 -65.9 62.2 -76.5 44.1C-87.1 25.9 -92.1 4.4 -89.4 -16.6C-86.7 -37.7 -76.4 -58.2 -60.3 -74C-44.1 -89.8 -22 -100.9 -2.2 -98.2C17.6 -95.6 35.2 -79.3 47.2 -62.7Z"
        fill="none" stroke="#FFFFFF" stroke-width="15" opacity="20%"></path>
    </g>
    <g transform="translate(31 691)">
      <path
        d="M25.6 -31.2C32.6 -24.5 37.5 -16 40.6 -6C43.8 4 45.2 15.5 40.5 23.1C35.7 30.7 24.8 34.4 14.9 35.8C5 37.2 -3.9 36.2 -11.8 33.1C-19.6 29.9 -26.4 24.5 -30.4 17.6C-34.4 10.6 -35.5 2.1 -34.2 -6.2C-32.9 -14.5 -29.3 -22.5 -23.2 -29.4C-17.1 -36.3 -8.6 -42 0.3 -42.4C9.2 -42.8 18.5 -37.9 25.6 -31.2Z"
        fill="none" stroke="#FFFFFF" stroke-width="15" opacity="20%"></path>
    </g>
    <g transform="translate(529 332)">
      <path
        d="M51.2 -58.9C67.8 -47.2 83.6 -32.4 89.4 -13.6C95.3 5.1 91.2 27.7 79.1 43C67.1 58.3 47 66.3 26.1 75.5C5.2 84.8 -16.7 95.3 -32.9 89.7C-49.2 84.2 -59.9 62.4 -66.6 42.5C-73.3 22.5 -76 4.3 -76.2 -16.6C-76.3 -37.6 -73.8 -61.3 -60.7 -73.7C-47.6 -86 -23.8 -86.9 -3.2 -83.1C17.3 -79.2 34.7 -70.6 51.2 -58.9Z"
        fill="none" stroke="#FFFFFF" stroke-width="15" opacity="20%"></path>
    </g>
    <g transform="translate(212 888)">
      <path
        d="M47.1 -51.3C63.1 -42.7 79.6 -29.8 81.7 -14.8C83.8 0.1 71.6 17.2 60.3 33C49 48.9 38.7 63.6 23.9 71.6C9 79.5 -10.5 80.9 -28 75.2C-45.6 69.6 -61.3 57.1 -67.7 41.4C-74 25.7 -70.9 6.9 -66.7 -10.8C-62.4 -28.4 -56.9 -44.9 -45.6 -54.3C-34.3 -63.8 -17.2 -66.2 -0.8 -65.3C15.5 -64.3 31.1 -59.9 47.1 -51.3Z"
        stroke="#FFFFFF" fill="none" stroke-width="15" opacity="20%"></path>
    </g>
    <g transform="translate(353 703)">
      <path
        d="M39.8 -44.5C51.9 -37.3 62.2 -25 63.4 -12.1C64.5 0.7 56.3 14.3 49.2 30C42 45.7 35.9 63.6 24.5 68.1C13.1 72.6 -3.4 63.8 -20.2 57C-37 50.3 -54.1 45.7 -59.8 34.9C-65.6 24.2 -60 7.3 -54.7 -7.4C-49.4 -22.1 -44.5 -34.6 -35.4 -42.4C-26.4 -50.1 -13.2 -53.2 0.3 -53.6C13.9 -54 27.7 -51.7 39.8 -44.5Z"
        stroke="#FFFFFF" fill="none" stroke-width="15" opacity="20%"></path>
    </g>
    <g transform="translate(531 931)">
      <path
        d="M42 -51C51.3 -42.2 53.7 -26 55.7 -10.4C57.8 5.2 59.6 20.4 53.6 30.9C47.5 41.5 33.5 47.5 19.2 52.7C5 57.8 -9.6 62.1 -21.8 58.3C-34 54.5 -43.8 42.8 -49 30.1C-54.1 17.4 -54.4 3.9 -51.8 -8.8C-49.2 -21.5 -43.6 -33.4 -34.4 -42.2C-25.3 -51 -12.6 -56.7 1.8 -58.9C16.3 -61.1 32.7 -59.8 42 -51Z"
        stroke="#FFFFFF" fill="none" stroke-width="15" opacity="20%"></path>
    </g>
    <g transform="translate(258 427)">
      <path
        d="M33.7 -37.4C43.7 -31.7 51.9 -21.2 55.2 -8.8C58.4 3.6 56.8 17.7 50.2 28.9C43.7 40.1 32.1 48.3 20 50.9C7.9 53.5 -4.7 50.6 -16.7 46.1C-28.7 41.6 -40 35.6 -46.8 26C-53.6 16.3 -55.8 3 -53.9 -9.8C-51.9 -22.6 -45.8 -34.9 -36.1 -40.6C-26.4 -46.3 -13.2 -45.5 -0.7 -44.7C11.8 -43.9 23.7 -43.1 33.7 -37.4Z"
        stroke="#FFFFFF" fill="none" stroke-width="15" opacity="20%"></path>
    </g>
    <g transform="translate(434 59)">
      <path
        d="M47.8 -58.2C61.5 -45.4 72 -30 77.1 -12C82.2 6 81.9 26.5 72.1 40C62.4 53.4 43.2 59.8 25.1 64.4C7 69.1 -10.1 72 -26.7 68.2C-43.2 64.4 -59.2 53.9 -71 38.5C-82.8 23.2 -90.4 3 -85.8 -13.7C-81.2 -30.4 -64.4 -43.6 -48.1 -56C-31.8 -68.3 -15.9 -79.8 0.6 -80.5C17 -81.2 34 -71 47.8 -58.2Z"
        stroke="#FFFFFF" fill="none" stroke-width="15" opacity="20%"></path>
    </g>
    <g transform="translate(4 424)">
      <path
        d="M45.9 -58.7C56.7 -45.6 60.7 -28.5 64.5 -10.8C68.3 6.9 71.9 25.3 65.8 39.9C59.6 54.6 43.7 65.5 26.8 70.2C9.8 74.9 -8.1 73.3 -23.3 66.7C-38.5 60 -50.9 48.3 -59 34.1C-67.2 19.9 -71.2 3.3 -68.9 -12.5C-66.6 -28.4 -57.9 -43.6 -45.4 -56.3C-32.8 -69 -16.4 -79.4 0.6 -80C17.5 -80.7 35.1 -71.7 45.9 -58.7Z"
        stroke="#FFFFFF" fill="none" stroke-width="15" opacity="20%"></path>
    </g>
  </g>
</svg>